<svg width="414" height="687" viewBox="0 0 414 687" fill="none" xmlns="http://www.w3.org/2000/svg">
<g clip-path="url(#clip0)">
<path d="M-241 325.2H-210.3C-179.6 325.2 -118.2 325.2 -56.8 320.653C4.60001 316.275 66 306.925 127.4 291.2C188.8 275.475 250.2 252.525 311.6 245.853C373 238.925 434.4 248.275 495.8 268.548C557.2 289.075 618.6 320.525 649.3 336.548L680 352.4V366H649.3C618.6 366 557.2 366 495.8 366C434.4 366 373 366 311.6 366C250.2 366 188.8 366 127.4 366C66 366 4.60001 366 -56.8 366C-118.2 366 -179.6 366 -210.3 366H-241V325.2Z" fill="#FEFEFE" fill-opacity="0.25"/>
</g>
<g clip-path="url(#clip1)">
<path d="M-15 260L1.16667 254.984C17.3333 250.156 49.6667 239.844 82 237.5C114.333 235.156 146.667 239.844 179 262.484C211.333 284.844 243.667 325.156 276 329.984C308.333 335 340.667 305 373 292.484C405.333 280.156 437.667 284.844 453.833 287.516L470 290V380H453.833C437.667 380 405.333 380 373 380C340.667 380 308.333 380 276 380C243.667 380 211.333 380 179 380C146.667 380 114.333 380 82 380C49.6667 380 17.3333 380 1.16667 380H-15V260Z" fill="#FEFEFE" fill-opacity="0.5"/>
</g>
<path d="M-395 317.5L-363.533 321.227C-332.067 325.234 -269.133 332.266 -206.2 309.977C-143.267 287.266 -80.3333 235.234 -17.4 231.227C45.5333 227.5 108.467 272.5 171.4 302.523C234.333 332.266 297.267 347.734 360.2 325.023C423.133 302.734 486.067 242.266 517.533 212.523L549 182.5V385H517.533C486.067 385 423.133 385 360.2 385C297.267 385 234.333 385 171.4 385C108.467 385 45.5333 385 -17.4 385C-80.3333 385 -143.267 385 -206.2 385C-269.133 385 -332.067 385 -363.533 385H-395V317.5Z" fill="#FEFEFE" fill-opacity="0.75"/>
<g clip-path="url(#clip2)">
<path d="M-15 276.8L28.8333 299.939C72.6667 322.213 160.333 369.788 248 346C335.667 322.213 423.333 231.388 511 276.8C598.667 322.213 686.333 508.188 774 576.739C861.667 646.588 949.333 599.013 1037 530.461C1124.67 460.613 1212.33 369.788 1256.17 322.861L1300 276.8V692H1256.17C1212.33 692 1124.67 692 1037 692C949.333 692 861.667 692 774 692C686.333 692 598.667 692 511 692C423.333 692 335.667 692 248 692C160.333 692 72.6667 692 28.8333 692H-15V276.8Z" fill="#FEFEFE"/>
</g>
<defs>
<clipPath id="clip0">
<rect width="921" height="136" fill="white" transform="translate(-241 230)"/>
</clipPath>
<clipPath id="clip1">
<rect width="485" height="150" fill="white" transform="translate(-15 230)"/>
</clipPath>
<clipPath id="clip2">
<rect width="1315" height="692" fill="white" transform="translate(-15)"/>
</clipPath>
</defs>
</svg>
